<mxfile host="app.diagrams.net" modified="2023-08-27T10:51:12.848Z" agent="Mozilla/5.0 (Windows NT 10.0; Win64; x64) AppleWebKit/537.36 (KHTML, like Gecko) Chrome/114.0.0.0 YaBrowser/23.7.3.823 Yowser/2.5 Safari/537.36" version="21.6.9" etag="8ID1x-NcfHsQfqQIazka" type="github">
  <diagram name="Страница — 1" id="stEijvx8TRNBS8l28aQI">
    <mxGraphModel>
      <root>
        <mxCell id="0" />
        <mxCell id="1" parent="0" />
      </root>
    </mxGraphModel>
  </diagram>
</mxfile>
